<?xml version="1.0" encoding="UTF-8" standalone="no"?>
<!DOCTYPE svg PUBLIC "-//W3C//DTD SVG 1.1//EN" "http://www.w3.org/Graphics/SVG/1.1/DTD/svg11.dtd">
<svg width="100%" height="100%" viewBox="0 0 600 170" version="1.1" xmlns="http://www.w3.org/2000/svg" xmlns:xlink="http://www.w3.org/1999/xlink" xml:space="preserve" xmlns:serif="http://www.serif.com/" style="fill-rule:evenodd;clip-rule:evenodd;stroke-linejoin:round;stroke-miterlimit:2;">
    <g>
        <path d="M84.2,40.3C82.9,39.5 81.4,39.4 80,40L11.2,71.8L10.9,72C9.5,72.8 8.7,74.3 8.7,75.8L8.7,87.1C8.7,88.9 9.7,90.4 11.3,91.1L80,123.1C80.6,123.3 81.2,123.5 81.7,123.5C82.5,123.5 83.4,123.3 84.1,122.8C85.4,122 86.1,120.6 86.1,119.1L86.1,104.5C86.1,102.7 85,101.1 83.3,100.4L36.8,81.6L83.4,62.6C85.1,62 86.2,60.4 86.2,58.5L86.2,43.9C86.2,42.4 85.4,41.1 84.2,40.3Z" style="fill-rule:nonzero;"/>
        <path d="M154.7,127.3C154.3,125.4 153.3,120.4 152.9,117.9L152.9,117.7C152.6,116.6 151.9,115.6 150.9,115C149.9,114.4 148.8,114.2 147.6,114.4C147.2,114.5 146.9,114.6 146.6,114.6C146.4,114.6 146.3,114.7 146.1,114.7L145.9,114.7C144.9,114.9 143.9,115 143.3,115C141,115 139.4,114.4 138,113.1C137.2,112.3 136.2,110.4 136.2,105.9L136.2,51.5L149.8,51.5C152.2,51.5 154.2,49.6 154.2,47.1L154.2,37.1C154.2,34.7 152.3,32.7 149.8,32.7L136.2,32.7L136.2,14.3C136.2,11.9 134.3,9.9 131.8,9.9L117.3,9.9C114.9,9.9 112.9,11.8 112.9,14.3L112.9,32.8L102.1,32.8C99.7,32.8 97.7,34.7 97.7,37.2L97.7,47.2C97.7,49.6 99.6,51.6 102.1,51.6L112.9,51.6L112.9,106.1C112.9,116 115.3,123.4 120,128.1C124.8,132.9 131.1,135.3 138.9,135.3C141.7,135.3 144.4,134.9 147,134.2C149,133.7 151,132.9 152.7,131.8C154.2,130.9 155,129.2 154.7,127.3Z" style="fill-rule:nonzero;"/>
        <path d="M213.3,117.9L213.3,117.7C213,116.6 212.3,115.6 211.3,115C210.3,114.4 209.2,114.2 208,114.4C207.6,114.5 207.3,114.6 207,114.6C206.8,114.6 206.7,114.7 206.5,114.7L206.3,114.7C205.3,114.9 204.3,115 203.7,115C201.4,115 199.8,114.4 198.4,113.1C197.6,112.3 196.6,110.4 196.6,105.9L196.6,51.5L210.2,51.5C212.6,51.5 214.6,49.6 214.6,47.1L214.6,37.1C214.6,34.7 212.7,32.7 210.2,32.7L196.6,32.7L196.6,14.3C196.6,11.9 194.7,9.9 192.2,9.9L177.7,9.9C175.3,9.9 173.3,11.8 173.3,14.3L173.3,32.8L162.4,32.8C160,32.8 158,34.7 158,37.2L158,47.2C158,49.6 159.9,51.6 162.4,51.6L173.3,51.6L173.3,106.1C173.3,116 175.7,123.4 180.4,128.1C185.2,132.9 191.5,135.3 199.3,135.3C202.1,135.3 204.8,134.9 207.4,134.2C209.4,133.7 211.4,132.9 213.1,131.8C214.6,130.9 215.4,129.2 215.1,127.3C214.8,125.4 213.8,120.4 213.3,117.9Z" style="fill-rule:nonzero;"/>
        <path d="M276.9,31.6L276.7,31.5C276.2,31.4 275.6,31.3 274.9,31.2C273.6,31 272.2,30.9 270.7,30.9C264.9,30.9 259.7,32.5 255.3,35.6C253.1,37.2 251.1,39.1 249.2,41.3L248.6,36.5C248.3,34.4 246.4,32.8 244.3,32.8L231.4,32.8C229,32.8 227,34.7 227,37.2L227,129.3C227,131.7 228.9,133.7 231.4,133.7L246,133.7C248.4,133.7 250.4,131.8 250.4,129.3L250.4,63.4C251.8,60.4 253.9,57.9 256.4,56.2C258.9,54.4 262.1,53.5 266.1,53.5L273.5,53.9C274.6,54 275.7,53.7 276.5,53C277.4,52.3 278,51.2 278.1,50L280.1,36.4C280.5,34.3 279.1,32.2 276.9,31.6Z" style="fill-rule:nonzero;"/>
        <path d="M336.5,31C329.8,31 323.9,32.3 319,35C315.7,36.8 312.9,38.9 310.5,41.4L309.3,36.3L309.2,36C308.6,34.1 306.9,32.9 305,32.9L294.2,32.9C291.8,32.9 289.8,34.8 289.8,37.3L289.8,165.9C289.8,168.3 291.7,170.3 294.2,170.3L308.7,170.3C311.1,170.3 313.1,168.4 313.1,165.9L313.1,128C315.2,129.7 317.6,131.1 320.1,132.2C325,134.3 330.4,135.4 336.7,135.4C349.2,135.4 359.1,130.8 366.2,121.7C373.2,112.8 376.7,101 376.7,86.8L376.7,84.9C376.7,69 373.2,56 366.4,46.2C359.2,36.1 349.2,31 336.5,31ZM353.4,84.9L353.4,86.9C353.4,95.7 351.5,102.9 347.6,108.4C343.9,113.6 338.7,116.1 331.5,116.1C326.9,116.1 323.2,115.2 320.3,113.3C317.4,111.4 315,108.9 313.2,105.8L313.2,61.6C315.1,58.3 317.4,55.8 320.3,54C323.4,52 327,51.1 331.4,51.1C338.7,51.1 343.9,54 347.6,60C351.4,66.4 353.4,74.8 353.4,84.9Z" style="fill-rule:nonzero;"/>
        <path d="M494.2,0L482.5,0C480.7,0 479.1,1.1 478.4,2.8L426.2,138.6C425.7,139.9 425.8,141.4 426.6,142.6C427.4,143.8 428.8,144.6 430.3,144.6L442.1,144.6C443.9,144.6 445.5,143.5 446.2,141.8L498.3,5.9C498.8,4.6 498.7,3.1 497.9,1.9C497.1,0.7 495.7,0 494.2,0Z" style="fill-rule:nonzero;"/>
        <path d="M588.7,73.6L516.5,41.6L516.4,41.6C515,41 513.5,41.2 512.3,42C511.1,42.8 510.4,44.2 510.4,45.6L510.4,59.7C510.4,60.7 510.7,62.2 512.4,63.5L512.8,63.8L563,83.3L513.2,102.8C511.5,103.4 510.4,105 510.4,106.9L510.4,121C510.4,122.5 511.2,123.8 512.4,124.7C513.1,125.2 514,125.4 514.8,125.4C515.4,125.4 516,125.3 516.5,125L588.7,92.9C590.3,92.2 591.3,90.7 591.3,88.9L591.3,77.6C591.3,75.8 590.3,74.2 588.7,73.6Z" style="fill-rule:nonzero;"/>
    </g>
</svg>
