<?xml version="1.0" encoding="utf-8"?>
<!-- Generator: Adobe Illustrator 24.1.2, SVG Export Plug-In . SVG Version: 6.00 Build 0)  -->
<svg version="1.1" id="Layer_1" xmlns:serif="http://www.serif.com/"
	 xmlns="http://www.w3.org/2000/svg" xmlns:xlink="http://www.w3.org/1999/xlink" x="0px" y="0px" viewBox="0 0 500 500"
	 style="enable-background:new 0 0 500 500;" xml:space="preserve">
<style type="text/css">
	.st0{fill:#FFFFFF;}
</style>
<g>
	<path class="st0" d="M169.6,139.8c-2.9-1.8-6.3-2-9.4-0.7L5.6,210.6L4.9,211c-3.1,1.8-4.9,5.2-4.9,8.5V245c0,4,2.2,7.4,5.8,9
		l154.3,71.9c1.3,0.5,2.7,0.9,3.8,0.9c1.8,0,3.8-0.4,5.4-1.6c2.9-1.8,4.5-4.9,4.5-8.3V284c0-4-2.5-7.6-6.3-9.2L63.1,232.6
		l104.7-42.7c3.8-1.3,6.3-4.9,6.3-9.2v-32.8C174.1,144.5,172.3,141.6,169.6,139.8"/>
	<path class="st0" d="M320.8,70.1h-26.3c-4,0-7.6,2.5-9.2,6.3l-117.3,305c-1.1,2.9-0.9,6.3,0.9,9s4.9,4.5,8.3,4.5h26.5
		c4,0,7.6-2.5,9.2-6.3L330,83.4c1.1-2.9,0.9-6.3-0.9-9C327.3,71.7,324.2,70.1,320.8,70.1"/>
	<path class="st0" d="M494.2,210.7L332,138.8h-0.2c-3.1-1.3-6.5-0.9-9.2,0.9c-2.7,1.8-4.3,4.9-4.3,8.1v31.7c0,2.2,0.7,5.6,4.5,8.5
		l0.9,0.7l112.8,43.8l-111.9,43.8c-3.8,1.3-6.3,4.9-6.3,9.2v31.7c0,3.4,1.8,6.3,4.5,8.3c1.6,1.1,3.6,1.6,5.4,1.6
		c1.3,0,2.7-0.2,3.8-0.9L494.2,254c3.6-1.6,5.8-4.9,5.8-9v-25.4C500,215.6,497.8,212,494.2,210.7"/>
</g>
</svg>
